{"title":"Cuore Selvaggio Wild at Heart 1990 HDMux 720p x264 ITA AC3stereo","uid":9046315,"size":4417163352,"categoryP":"video","categoryS":"hd___movies","magnet":"?xt=urn:btih:acb812c7ddc5159f546e1f102f80776f55550aaf&amp;dn=Cuore+Selvaggio+Wild+at+Heart+1990+HDMux+720p+x264+ITA+AC3stereo&amp;tr=udp%3A%2F%2Ftracker.openbittorrent.com%3A80&amp;tr=udp%3A%2F%2Fopen.demonii.com%3A1337&amp;tr=udp%3A%2F%2Ftracker.coppersurfer.tk%3A6969&amp;tr=udp%3A%2F%2Fexodus.desync.com%3A6969","seeders":5,"leechers":3,"uploader":"OrgazmoITA","files":1,"time":1381761200,"description":"General\nUnique ID: 258943641251823562628907690367940242953 (0xC2CEBB33D382DC4971175BD646AF2E09)\nComplete name: Cuore.Selvaggio.Wild.at.Heart.1990.HDMux.720p.x264.ITA-AC3stereo.ENG-DTS.Multisub.Orgazmo.mkv\nFormat: Matroska\nFormat version: Version 4 / Version 2\nFile size: 4.11 GiB\nDuration: 2h 5mn\nOverall bit rate: 4 703 Kbps\nEncoded date: UTC 2013-10-13 19:03:18\nWriting application: mkvmerge v6.2.0 ('Promised Land') built on Apr 28 2013 18:50:30\nWriting library: libebml v1.3.0 + libmatroska v1.4.0\n\nVideo\nID: 1\nFormat: AVC\nFormat/Info: Advanced Video Codec\nFormat profile: &lt;a class=&quot;__cf_email__&quot; href=&quot;/cdn-cgi/l/email-protection&quot; data-cfemail=&quot;e8a0818f80a8a4dbc6da&quot;&gt;[email&amp;#160;protected]&lt;/a&gt;&lt;script cf-hash='f9e31' type=&quot;text/javascript&quot;&gt;\n/* &lt;![CDATA[ */!function(){try{var t=&quot;currentScript&quot;in document?document.currentScript:function(){for(var t=document.getElementsByTagName(&quot;script&quot;),e=t.length;e--;)if(t[e].getAttribute(&quot;cf-hash&quot;))return t[e]}();if(t&amp;&amp;t.previousSibling){var e,r,n,i,c=t.previousSibling,a=c.getAttribute(&quot;data-cfemail&quot;);if(a){for(e=&quot;&quot;,r=parseInt(a.substr(0,2),16),n=2;a.length-n;n+=2)i=parseInt(a.substr(n,2),16)^r,e+=String.fromCharCode(i);e=document.createTextNode(e),c.parentNode.replaceChild(e,c)}}}catch(u){}}();/* ]]&gt; */&lt;/script&gt;\nFormat settings, CABAC: Yes\nFormat settings, ReFrames: 7 frames\nCodec ID: V_MPEG4/ISO/AVC\nDuration: 2h 5mn\nBit rate: 3 500 Kbps\nWidth: 1 280 pixels\nHeight: 544 pixels\nDisplay aspect ratio: 2.35:1\nFrame rate mode: Constant\nFrame rate: 23.976 fps\nColor space: YUV\nChroma subsampling: 4:2:0\nBit depth: 8 bits\nScan type: Progressive\nBits/(Pixel*Frame): 0.210\nStream size: 2.98 GiB (72%)\nTitle: Wild At Heart - ITA/ENG Multisub\nWriting library: x264 core 120\nEncoding settings: cabac=1 // deblock=1:-3:-3 / analyse=0x3:0x133 / me=umh / subme=10 / psy=1 / psy_rd=0.90:0.00 // me_range=128 / chroma_me=1 / trellis=2 / 8x8dct=1 / cqm=0 / deadzone=21,11 / fast_pskip=1 / chroma_qp_offset=-2 / threads=12 / sliced_threads=0 / nr=0 / decimate=1 / interlaced=0 / bluray_compat=0 / constrained_intra=0 / bframes=8 / b_pyramid=2 / b_adapt=2 / b_bias=0 / direct=3 / weightb=1 / open_gop=0 / weightp=2 / keyint=240 / keyint_min=24 / scenecut=40 / intra_refresh=0 / rc_lookahead=140 / rc=2pass / mbtree=1 / bitrate=3500 / ratetol=1.0 / qcomp=0.60 / qpmin=3 / qpmax=69 / qpstep=4 / cplxblur=20.0 / qblur=0.5 / ip_ratio=1.40 / aq=1:1.00\nLanguage: English\nDefault: Yes\nForced: No\nColor primaries: BT.709\nTransfer characteristics: BT.709\nMatrix coefficients: BT.709\n\nAudio #1\nID: 2\nFormat: AC-3\nFormat/Info: Audio Coding 3\nMode extension: CM (complete main)\nFormat settings, Endianness: Big\nCodec ID: A_AC3\nDuration: 2h 5mn\nBit rate mode: Constant\nBit rate: 448 Kbps\nChannel count: 2 channels\nChannel positions: Front: L R\nSampling rate: 48.0 KHz\nBit depth: 16 bits\nCompression mode: Lossy\nStream size: 401 MiB (10%)\nTitle: Italiano\nLanguage: Italian\nDefault: Yes\nForced: No\n\nAudio #2\nID: 3\nFormat: DTS\nFormat/Info: Digital Theater Systems\nMode: 16\nFormat settings, Endianness: Big\nCodec ID: A_DTS\nDuration: 2h 5mn\nBit rate mode: Constant\nBit rate: 754 Kbps\nChannel count: 6 channels\nChannel positions: Front: L C R, Side: L R, LFE\nSampling rate: 48.0 KHz\nBit depth: 24 bits\nCompression mode: Lossy\nStream size: 676 MiB (16%)\nTitle: English\nLanguage: English\nDefault: No\nForced: No\n\nText #1\nID: 4\nFormat: UTF-8\nCodec ID: S_TEXT/UTF8\nCodec ID/Info: UTF-8 Plain Text\nTitle: Italiano\nLanguage: Italian\nDefault: No\nForced: No\n\nText #2\nID: 5\nFormat: UTF-8\nCodec ID: S_TEXT/UTF8\nCodec ID/Info: UTF-8 Plain Text\nTitle: English\nLanguage: English\nDefault: No\nForced: No\n\nText #3\nID: 6\nFormat: UTF-8\nCodec ID: S_TEXT/UTF8\nCodec ID/Info: UTF-8 Plain Text\nTitle: Francais\nLanguage: French\nDefault: No\nForced: No\n\nText #4\nID: 7\nFormat: UTF-8\nCodec ID: S_TEXT/UTF8\nCodec ID/Info: UTF-8 Plain Text\nTitle: German\nLanguage: German\nDefault: No\nForced: No\n\nText #5\nID: 8\nFormat: UTF-8\nCodec ID: S_TEXT/UTF8\nCodec ID/Info: UTF-8 Plain Text\nTitle: Espanol\nLanguage: Spanish\nDefault: No\nForced: No\n\nText #6\nID: 9\nFormat: UTF-8\nCodec ID: S_TEXT/UTF8\nCodec ID/Info: UTF-8 Plain Text\nTitle: Dutch\nLanguage: Dutch\nDefault: No\nForced: No\n\nText #7\nID: 10\nFormat: UTF-8\nCodec ID: S_TEXT/UTF8\nCodec ID/Info: UTF-8 Plain Text\nTitle: Czech\nLanguage: Czech\nDefault: No\nForced: No\n\nText #8\nID: 11\nFormat: UTF-8\nCodec ID: S_TEXT/UTF8\nCodec ID/Info: UTF-8 Plain Text\nTitle: Norwegian\nLanguage: Norwegian\nDefault: No\nForced: No\n\nText #9\nID: 12\nFormat: UTF-8\nCodec ID: S_TEXT/UTF8\nCodec ID/Info: UTF-8 Plain Text\nTitle: Swedish\nLanguage: Swedish\nDefault: No\nForced: No\n\nText #10\nID: 13\nFormat: UTF-8\nCodec ID: S_TEXT/UTF8\nCodec ID/Info: UTF-8 Plain Text\nTitle: Danish\nLanguage: Danish\nDefault: No\nForced: No\n\nText #11\nID: 14\nFormat: UTF-8\nCodec ID: S_TEXT/UTF8\nCodec ID/Info: UTF-8 Plain Text\nTitle: Finnish\nLanguage: Finnish\nDefault: No\nForced: No\n\nText #12\nID: 15\nFormat: UTF-8\nCodec ID: S_TEXT/UTF8\nCodec ID/Info: UTF-8 Plain Text\nTitle: Portuguese\nLanguage: Portuguese\nDefault: No\nForced: No\n\nText #13\nID: 16\nFormat: UTF-8\nCodec ID: S_TEXT/UTF8\nCodec ID/Info: UTF-8 Plain Text\nTitle: Brasilian Portuguese\nLanguage: Portuguese\nDefault: No\nForced: No","torrent":{"xt":"urn:btih:acb812c7ddc5159f546e1f102f80776f55550aaf","amp;dn":"Cuore+Selvaggio+Wild+at+Heart+1990+HDMux+720p+x264+ITA+AC3stereo","amp;tr":["udp%3A%2F%2Ftracker.openbittorrent.com%3A80","udp%3A%2F%2Fopen.demonii.com%3A1337","udp%3A%2F%2Ftracker.coppersurfer.tk%3A6969","udp%3A%2F%2Fexodus.desync.com%3A6969"],"infoHash":"acb812c7ddc5159f546e1f102f80776f55550aaf","infoHashBuffer":{"type":"Buffer","data":[172,184,18,199,221,197,21,159,84,110,31,16,47,128,119,111,85,85,10,175]},"announce":[],"urlList":[]}}